<?xml version="1.0" standalone="no"?><!DOCTYPE svg PUBLIC "-//W3C//DTD SVG 1.1//EN" "http://www.w3.org/Graphics/SVG/1.1/DTD/svg11.dtd"><svg t="1739086571550" class="icon" viewBox="0 0 1024 1024" version="1.1" xmlns="http://www.w3.org/2000/svg" p-id="1539" xmlns:xlink="http://www.w3.org/1999/xlink" width="200" height="200"><path d="M352 256h416v64H352V256z m416 512H352v-64h416v64z m-416-288h416v64H352v-64z m544 512H192a96 96 0 0 1-96-96v-96h64v96a32 32 0 0 0 32 32h704a32 32 0 0 0 32-32V128a32 32 0 0 0-32-32H192a32 32 0 0 0-32 32v96H96V128a96 96 0 0 1 96-96h704a96 96 0 0 1 96 96v768a96 96 0 0 1-96 96zM224 288a32 32 0 0 1-32 32H64a32 32 0 0 1 0-64h128a32 32 0 0 1 32 32z m-64 64v320H96V352h64zM64 704h128a32 32 0 0 1 0 64H64a32 32 0 0 1 0-64z" fill="#3399FF" p-id="1540"></path></svg>